<svg xmlns="http://www.w3.org/2000/svg" viewBox="0 0 1800 160.79"><defs></defs><title>Layer 1</title><g id="Layer_2" data-name="Layer 2"><g id="Layer_1-2" data-name="Layer 1"><path fill="#192146" d="M0,148.46l165.33-19,146.34-17.67,83.66-9.67,71-8.33L586,79.79l62.33-7.67,50.67-6,76.33-8.66,88-11s39-4.34,68.67-7.67,69.67-8,92.67-11.33c27-3.34,65-7.34,91-10.67C1148,12.79,1205,6.12,1205,6.12c25.33-3.33,66-9.33,156.67-4,34.33,2.34,98,9.67,98,9.67l52.66,7.67L1571,31.79s39.33,11.67,56.33,17.33c21,7,160.67,56,172.67,61v50.67H0Z"/></g></g></svg>