<svg xmlns="http://www.w3.org/2000/svg" viewBox="0 0 1800 220.57"><defs><style>.cls-1{fill:#192146;}</style></defs><title>Asset 1</title><g id="Layer_2" data-name="Layer 2"><g id="Layer_1-2" data-name="Layer 1"><path class="cls-1" d="M0,0V8.38l31.67,10L78.33,33.71S273,96.21,335.5,116.21c0,0,80,27,143.5,46.5,29.5,10,60,19,60,19l19.5,5.5,17.5,4.5,13.5,3,13.42,3,16.58,3.46s26,3.5,37.5,5,32,4,32,4l26,2.5,27.5,3,31.17,2.5,43.21,1.87h19.5s33.12,2.63,90.62-4.37,53-5.5,53-5.5l77.5-9,90.5-10.33,182-20,134.5-15,92-10,65-7.5,95-10,83.5-8.2V0Z"/></g></g></svg>